# 3ds Max Wavefront OBJ Exporter v0.97b - (c)2007 guruware
# File Created: 11.06.2011 20:05:43

mtllib portaEsquerda.mtl

#
# object Object001
#

v  97.8841 76.5696 -422.3925
v  60.1399 76.3010 -422.3925
v  60.1085 76.3008 28.9855
v  97.8842 76.5697 28.9854
v  3.2260 15.1022 260.5083
v  3.1087 15.0849 214.6909
v  1.0448 5.5515 214.6909
v  1.1284 5.5521 260.5083
v  12.6446 37.3792 260.5083
v  12.6040 37.4040 214.6909
v  25.0030 54.9687 260.5083
v  25.0044 55.0081 214.6909
v  40.1557 67.8505 260.5083
v  40.1447 67.8542 214.6909
v  60.0791 76.3407 260.5083
v  60.0955 76.3008 214.6909
v  3.0680 15.0846 28.9854
v  12.5316 37.4035 28.9854
v  24.9931 55.0080 28.9854
v  40.1206 67.8540 28.9854
v  97.8843 76.5698 214.6909
v  97.8843 76.5677 260.5083
v  0.9992 5.5511 28.9855
v  2.9691 15.0838 -422.3924
v  12.3554 37.4021 -422.3924
v  24.9656 55.0077 -422.3924
v  40.0624 67.8535 -422.3924
v  12.3498 37.4021 -436.7781
v  2.9659 15.0838 -436.7781
v  24.9648 55.0076 -436.7781
v  40.0604 67.8536 -436.7781
v  60.1409 76.3010 -436.7782
v  97.8841 76.5696 -436.7782
v  99.9221 68.1567 -436.7631
v  99.9223 68.1568 28.9854
v  62.7867 67.9337 28.9855
v  62.7564 67.9279 -436.7631
v  7.9740 1.0723 260.4209
v  7.8875 1.0755 28.9843
v  9.7715 9.9686 28.9843
v  9.8895 10.0328 260.4198
v  18.9540 31.6530 28.9840
v  19.0776 31.7005 260.4223
v  30.7544 48.2978 28.9848
v  30.8250 48.3481 260.4246
v  44.8076 60.2228 28.9852
v  44.9234 60.2776 260.4260
v  62.9767 67.9890 260.4283
v  99.9193 68.1558 260.4269
v  7.7741 1.0711 -436.7643
v  9.6551 9.9252 -436.7644
v  18.6450 31.4207 -436.7643
v  30.5272 48.0834 -436.7634
v  44.4418 60.0422 -436.7633
v  0.8849 5.5503 -436.7781
# 55 vertices

vn -0.0071 1.0000 -0.0000
vn -0.2013 0.9795 -0.0000
vn -0.2021 0.9794 0.0000
vn -0.9529 0.3031 0.0020
vn -0.9431 0.3326 0.0013
vn -0.9773 0.2120 0.0023
vn -0.9767 0.2145 0.0018
vn -0.8744 0.4852 0.0014
vn -0.8738 0.4863 0.0005
vn -0.7388 0.6739 0.0008
vn -0.7382 0.6746 0.0003
vn -0.5257 0.8507 0.0004
vn -0.5246 0.8514 -0.0001
vn -0.2029 0.9792 -0.0003
vn -0.2024 0.9793 -0.0005
vn -0.9432 0.3323 0.0003
vn -0.8735 0.4868 0.0002
vn -0.7375 0.6753 0.0001
vn -0.5243 0.8515 0.0000
vn -0.0069 1.0000 -0.0002
vn -0.0060 1.0000 0.0000
vn -0.9773 0.2121 0.0002
vn -0.9223 0.3866 0.0003
vn -0.8729 0.4880 0.0003
vn -0.7360 0.6770 0.0001
vn -0.5241 0.8517 0.0000
vn -0.8728 0.4880 0.0003
vn -0.9218 0.3876 0.0003
vn -0.7359 0.6771 0.0001
vn -0.5241 0.8517 0.0001
vn 0.0061 -1.0000 0.0000
vn 0.0060 -1.0000 -0.0000
vn 0.2042 -0.9789 -0.0000
vn 0.2049 -0.9788 -0.0000
vn 0.9779 -0.2090 -0.0004
vn 0.9783 -0.2072 -0.0003
vn 0.9539 -0.3000 -0.0003
vn 0.9536 -0.3011 -0.0004
vn 0.8734 -0.4869 -0.0003
vn 0.8738 -0.4863 -0.0003
vn 0.7371 -0.6757 -0.0001
vn 0.7374 -0.6755 -0.0002
vn 0.5264 -0.8502 -0.0000
vn 0.5252 -0.8510 -0.0000
vn 0.2026 -0.9793 0.0001
vn 0.0047 -1.0000 0.0002
vn 0.9782 -0.2078 -0.0002
vn 0.9545 -0.2982 -0.0003
vn 0.8739 -0.4862 -0.0003
vn 0.7383 -0.6744 -0.0002
vn 0.5298 -0.8481 -0.0001
vn 0.9719 0.2354 -0.0000
vn 0.9719 0.2354 0.0000
vn 0.0089 -0.0051 0.9999
vn 0.0100 -0.0042 0.9999
vn 0.0090 -0.0049 0.9999
vn 0.0070 -0.0065 1.0000
vn 0.0070 -0.0064 1.0000
vn 0.0048 -0.0079 1.0000
vn 0.0048 -0.0078 1.0000
vn 0.0019 -0.0089 1.0000
vn 0.0016 -0.0090 1.0000
vn 0.9720 0.2351 -0.0000
vn 0.9720 0.2351 0.0000
vn 0.0001 -0.0096 1.0000
vn 0.0001 -0.0097 1.0000
vn 0.0018 -0.0004 -1.0000
vn 0.0016 -0.0005 -1.0000
vn 0.0017 -0.0005 -1.0000
vn 0.0014 -0.0008 -1.0000
vn 0.0015 -0.0008 -1.0000
vn 0.0012 -0.0011 -1.0000
vn 0.0009 -0.0014 -1.0000
vn 0.0004 -0.0017 -1.0000
vn 0.0003 -0.0017 -1.0000
vn 0.0000 -0.0018 -1.0000
# 76 vertex normals

vt 0.4155 0.7780 0.0000
vt 0.2085 0.7780 0.0000
vt 0.1022 0.7217 0.0000
vt 0.1233 0.7217 0.0000
vt 0.1233 0.7129 0.0000
vt 0.1022 0.7129 0.0000
vt 0.1022 0.7423 0.0000
vt 0.1233 0.7423 0.0000
vt 0.1022 0.7585 0.0000
vt 0.1233 0.7585 0.0000
vt 0.1022 0.7703 0.0000
vt 0.1233 0.7703 0.0000
vt 0.1022 0.7781 0.0000
vt 0.1233 0.7780 0.0000
vt 0.2085 0.7217 0.0000
vt 0.2085 0.7423 0.0000
vt 0.2085 0.7585 0.0000
vt 0.2085 0.7703 0.0000
vt 0.1022 0.7780 0.0000
vt 0.2085 0.7129 0.0000
vt 0.4155 0.7217 0.0000
vt 0.4155 0.7423 0.0000
vt 0.4155 0.7585 0.0000
vt 0.4155 0.7703 0.0000
vt 0.4221 0.7423 0.0000
vt 0.4221 0.7217 0.0000
vt 0.4221 0.7585 0.0000
vt 0.4221 0.7703 0.0000
vt 0.4221 0.7780 0.0000
vt 0.4961 0.1646 0.0000
vt 0.8240 0.1646 0.0000
vt 0.8240 0.1190 0.0000
vt 0.4961 0.1190 0.0000
vt 0.9870 0.0039 0.0000
vt 0.8240 0.0038 0.0000
vt 0.8240 0.0125 0.0000
vt 0.9870 0.0127 0.0000
vt 0.8240 0.0393 0.0000
vt 0.9870 0.0395 0.0000
vt 0.8240 0.0657 0.0000
vt 0.9870 0.0658 0.0000
vt 0.8240 0.0915 0.0000
vt 0.9870 0.0917 0.0000
vt 0.9870 0.1193 0.0000
vt 0.9870 0.1646 0.0000
vt 0.4961 0.0037 0.0000
vt 0.4961 0.0123 0.0000
vt 0.4961 0.0388 0.0000
vt 0.4961 0.0653 0.0000
vt 0.4961 0.0909 0.0000
vt 0.5063 0.1808 0.0000
vt 0.8225 0.1808 0.0000
vt 0.8225 0.1642 0.0000
vt 0.4963 0.1642 0.0000
vt 0.5392 0.1797 0.0000
vt 0.5117 0.1798 0.0000
vt 0.5117 0.1640 0.0000
vt 0.5392 0.1639 0.0000
vt 0.5636 0.1803 0.0000
vt 0.5640 0.1643 0.0000
vt 0.5823 0.1804 0.0000
vt 0.5823 0.1642 0.0000
vt 0.5991 0.1805 0.0000
vt 0.5989 0.1643 0.0000
vt 0.9526 0.1808 0.0000
vt 0.9847 0.1642 0.0000
vt 0.9847 0.1808 0.0000
vt 0.6408 0.1805 0.0000
vt 0.6408 0.1642 0.0000
vt 0.5011 0.1801 0.0000
vt 0.5116 0.1798 0.0000
vt 0.5115 0.1640 0.0000
vt 0.5010 0.1645 0.0000
vt 0.5390 0.1798 0.0000
vt 0.5388 0.1639 0.0000
vt 0.5637 0.1642 0.0000
vt 0.5822 0.1804 0.0000
vt 0.5819 0.1642 0.0000
vt 0.5992 0.1805 0.0000
vt 0.5987 0.1642 0.0000
vt 0.4963 0.1808 0.0000
# 81 texture coords

g Object001
usemtl spstob_1
s 1
f 1/1/1 2/1/2 3/2/3 
f 3/2/3 4/2/1 1/1/1 
f 5/3/4 6/4/5 7/5/6 
f 7/5/6 8/6/7 5/3/4 
f 9/7/8 10/8/9 6/4/5 
f 6/4/5 5/3/4 9/7/8 
f 11/9/10 12/10/11 10/8/9 
f 10/8/9 9/7/8 11/9/10 
f 13/11/12 14/12/13 12/10/11 
f 12/10/11 11/9/10 13/11/12 
f 15/13/14 16/14/15 14/12/13 
f 14/12/13 13/11/12 15/13/14 
f 17/15/16 6/4/5 10/8/9 
f 10/8/9 18/16/17 17/15/16 
f 18/16/17 10/8/9 12/10/11 
f 12/10/11 19/17/18 18/16/17 
f 19/17/18 12/10/11 14/12/13 
f 14/12/13 20/18/19 19/17/18 
f 20/18/19 14/12/13 16/14/15 
f 16/14/15 3/2/3 20/18/19 
f 21/14/20 4/2/1 3/2/3 
f 3/2/3 16/14/15 21/14/20 
f 21/14/20 16/14/15 15/13/14 
f 15/13/14 22/19/21 21/14/20 
f 23/20/22 17/15/16 24/21/23 
f 24/21/23 17/15/16 18/16/17 
f 18/16/17 25/22/24 24/21/23 
f 25/22/24 18/16/17 19/17/18 
f 19/17/18 26/23/25 25/22/24 
f 26/23/25 19/17/18 20/18/19 
f 20/18/19 27/24/26 26/23/25 
f 27/24/26 20/18/19 3/2/3 
f 3/2/3 2/1/2 27/24/26 
f 25/22/24 28/25/27 29/26/28 
f 29/26/28 24/21/23 25/22/24 
f 26/23/25 30/27/29 28/25/27 
f 28/25/27 25/22/24 26/23/25 
f 27/24/26 31/28/30 30/27/29 
f 30/27/29 26/23/25 27/24/26 
f 2/1/2 32/29/2 31/28/30 
f 31/28/30 27/24/26 2/1/2 
f 1/1/1 33/29/1 32/29/2 
f 32/29/2 2/1/2 1/1/1 
f 34/30/31 35/31/32 36/32/33 
f 36/32/33 37/33/34 34/30/31 
f 38/34/35 39/35/36 40/36/37 
f 40/36/37 41/37/38 38/34/35 
f 40/36/37 42/38/39 43/39/40 
f 43/39/40 41/37/38 40/36/37 
f 42/38/39 44/40/41 45/41/42 
f 45/41/42 43/39/40 42/38/39 
f 44/40/41 46/42/43 47/43/44 
f 47/43/44 45/41/42 44/40/41 
f 46/42/43 36/32/33 48/44/45 
f 48/44/45 47/43/44 46/42/43 
f 49/45/46 48/44/45 36/32/33 
f 36/32/33 35/31/32 49/45/46 
f 39/35/36 50/46/47 51/47/48 
f 51/47/48 40/36/37 39/35/36 
f 51/47/48 52/48/49 42/38/39 
f 42/38/39 40/36/37 51/47/48 
f 52/48/49 53/49/50 44/40/41 
f 44/40/41 42/38/39 52/48/49 
f 53/49/50 54/50/51 46/42/43 
f 46/42/43 44/40/41 53/49/50 
f 54/50/51 37/33/34 36/32/33 
f 36/32/33 46/42/43 54/50/51 
s 2
f 1/51/52 4/52/53 35/53/53 
f 35/53/53 34/54/52 1/51/52 
f 9/55/54 5/56/55 41/57/55 
f 41/57/55 43/58/56 9/55/54 
f 11/59/57 9/55/54 43/58/56 
f 43/58/56 45/60/58 11/59/57 
f 13/61/59 11/59/57 45/60/58 
s 6
f 45/60/58 47/62/60 13/61/59 
f 15/63/61 13/61/59 47/62/60 
s 4
f 47/62/60 48/64/62 15/63/61 
s 2
f 4/52/53 21/65/63 49/66/64 
f 49/66/64 35/53/53 4/52/53 
f 22/67/64 49/66/64 21/65/63 
s 4
f 22/68/65 15/63/61 48/64/62 
f 48/64/62 49/69/66 22/68/65 
s 8
f 55/70/67 29/71/68 51/72/69 
f 51/72/69 50/73/67 55/70/67 
f 29/71/68 28/74/70 52/75/71 
f 52/75/71 51/72/69 29/71/68 
s 10
f 28/74/70 30/59/72 53/76/72 
f 53/76/72 52/75/71 28/74/70 
s 6
f 30/59/72 31/77/73 54/78/73 
f 54/78/73 53/76/72 30/59/72 
s 4
f 31/77/73 32/79/74 37/80/75 
f 37/80/75 54/78/73 31/77/73 
f 32/79/74 33/68/76 34/69/76 
f 34/69/76 37/80/75 32/79/74 
s 2
f 1/51/52 34/54/52 33/81/52 
# 0 polygons - 95 triangles

